<?xml version="1.0" encoding="utf-8"?>
<!-- Generator: Adobe Illustrator 22.0.0, SVG Export Plug-In . SVG Version: 6.00 Build 0)  -->
<svg version="1.1" id="OBJECTS" xmlns="http://www.w3.org/2000/svg" xmlns:xlink="http://www.w3.org/1999/xlink" x="0px" y="0px"
	 viewBox="0 0 500 500" style="enable-background:new 0 0 500 500;" xml:space="preserve">
<style type="text/css">
	.st0{fill:url(#SVGID_1_);}
	.st1{fill:url(#SVGID_2_);}
	.st2{fill:url(#SVGID_3_);}
	.st3{fill:url(#SVGID_4_);}
	.st4{fill:url(#SVGID_5_);}
	.st5{fill:url(#SVGID_6_);}
	.st6{fill:url(#SVGID_7_);}
</style>
<linearGradient id="SVGID_1_" gradientUnits="userSpaceOnUse" x1="309.3702" y1="92.1127" x2="198.7466" y2="400.1691">
	<stop  offset="0" style="stop-color:#534B78"/>
	<stop  offset="0.2355" style="stop-color:#474066"/>
	<stop  offset="0.7298" style="stop-color:#302B45"/>
	<stop  offset="1" style="stop-color:#272338"/>
</linearGradient>
<path class="st0" d="M437,219.1L288.4,70.4c-10.2-10.2-23.9-15.9-38.3-15.9c-14.5,0-28.1,5.6-38.3,15.9L63,219.1
	c-21.1,21.1-21.1,55.5,0,76.7l148.7,148.7c10.6,10.6,24.4,15.8,38.3,15.8c13.9,0,27.8-5.3,38.3-15.8L437,295.8
	c10.6-10.6,15.9-24.5,15.9-38.3C452.9,243.6,447.6,229.7,437,219.1z M419.5,278.2L270.8,426.9c-5.5,5.6-12.9,8.6-20.8,8.6
	c-7.9,0-15.3-3-20.8-8.6L80.6,278.2c-11.5-11.5-11.5-30.1,0-41.6L229.2,88c5.6-5.6,13-8.6,20.8-8.6c7.9,0,15.2,3,20.8,8.6
	l148.7,148.7C430.9,248.1,430.9,266.8,419.5,278.2z"/>
<linearGradient id="SVGID_2_" gradientUnits="userSpaceOnUse" x1="236.461" y1="333.1105" x2="398.8774" y2="162.9233">
	<stop  offset="0" style="stop-color:#C43AFF"/>
	<stop  offset="0.9812" style="stop-color:#34A5D6"/>
</linearGradient>
<path class="st1" d="M359,107.5l0.6,12.7c30-0.1,33.6,25.7,29.5,46.5c-7.9,40.2-44.8,64.4-106.3,116.4
	c-26.7,22.6-50.7,61.9-22.1,110.2c11.2-22.9,45.6-49.5,99-95.7c51.7-44.8,69.3-70.6,70.8-113.4C432,144,405.5,112,359,107.5z"/>
<linearGradient id="SVGID_3_" gradientUnits="userSpaceOnUse" x1="110.9824" y1="375.3244" x2="351.8172" y2="122.9669">
	<stop  offset="0" style="stop-color:#C43AFF"/>
	<stop  offset="0.9812" style="stop-color:#34A5D6"/>
</linearGradient>
<path class="st2" d="M302.5,216c-83.3,72.2-159.8,111.2-166.1,163.3c-5.2,42.9,30.1,71.8,66.7,56.5l8.5,8.5
	c-58.6,31-144.9-18.6-134.5-105.5c9.8-82.1,98.4-132.4,184.2-198.1c45.6-35,66.3-59.2,53.7-81.6c-6.6-11.7-26.3-15.1-47.5-1.7
	c-5.3-1.8-10.9-2.8-16.7-2.8c37.2-31.9,77.7-18.9,95-2.6C373.7,78.3,385.8,143.8,302.5,216z"/>
<g>
	<linearGradient id="SVGID_4_" gradientUnits="userSpaceOnUse" x1="185.0671" y1="195.009" x2="319.5562" y2="248.8045">
		<stop  offset="0" style="stop-color:#FFFFFF"/>
		<stop  offset="1" style="stop-color:#FFFFFF;stop-opacity:0"/>
	</linearGradient>
	<path class="st3" d="M261.2,379.5c-19.4-43.6,7.3-75.5,26-91.3c9.5-8.1,18.3-15.3,26.9-22.4c46.5-38.4,74.6-61.6,81.7-97.9
		c2-10.3,3.8-29.5-7-42.6c-1.6-2-3.5-3.7-5.5-5.2c26.3,10.7,41.6,33.9,40.6,63.8c-1.4,39.4-16.8,63.7-68.5,108.5
		c-9.2,8-17.9,15.4-25.9,22.2C297.1,342.3,273.9,362.1,261.2,379.5z"/>
	<linearGradient id="SVGID_5_" gradientUnits="userSpaceOnUse" x1="-73.8356" y1="176.9781" x2="170.6492" y2="230.1272">
		<stop  offset="0" style="stop-color:#FFFFFF"/>
		<stop  offset="1" style="stop-color:#FFFFFF;stop-opacity:0"/>
	</linearGradient>
	<path class="st4" d="M173.4,446.8c-24.9,0-50-11.6-67.2-30.9c-17.9-20.2-25.9-47.3-22.4-76.2c7.9-65.8,68.9-110.5,139.6-162.3
		c13.7-10.1,27.9-20.5,42-31.2c45.9-35.2,71.2-62.5,55.4-90.3c-4.8-8.5-14.5-13.6-26.1-13.8c1.9-0.2,3.7-0.2,5.6-0.2
		c18.2,0,32.9,7.8,40.7,15.1c12.4,11.6,19.3,29.6,18.9,49.3c-0.5,23.8-11.6,61.2-61.8,104.8c-24.4,21.2-48.6,39.8-70,56.2
		c-52.3,40.2-93.6,71.9-98.4,111.4c-2.4,19.5,2.7,37.4,14.3,50.5c9.3,10.5,21.7,16.6,35.4,17.6C177.4,446.7,175.4,446.8,173.4,446.8
		z"/>
	<g>
		<linearGradient id="SVGID_6_" gradientUnits="userSpaceOnUse" x1="559.5439" y1="264.3456" x2="395.9084" y2="254.3584">
			<stop  offset="0" style="stop-color:#FFFFFF"/>
			<stop  offset="1" style="stop-color:#FFFFFF;stop-opacity:0"/>
		</linearGradient>
		<path class="st5" d="M261.2,379.5c-19.4-43.6,7.3-75.5,26-91.3c9.5-8.1,18.3-15.3,26.9-22.4c46.5-38.4,74.6-61.6,81.7-97.9
			c2-10.3,3.8-29.5-7-42.6c-1.6-2-3.5-3.7-5.5-5.2c26.3,10.7,41.6,33.9,40.6,63.8c-1.4,39.4-16.8,63.7-68.5,108.5
			c-9.2,8-17.9,15.4-25.9,22.2C297.1,342.3,273.9,362.1,261.2,379.5z"/>
		<linearGradient id="SVGID_7_" gradientUnits="userSpaceOnUse" x1="472.5337" y1="299.7803" x2="288.9234" y2="256.7585">
			<stop  offset="0" style="stop-color:#FFFFFF"/>
			<stop  offset="1" style="stop-color:#FFFFFF;stop-opacity:0"/>
		</linearGradient>
		<path class="st6" d="M173.4,446.8c-24.9,0-50-11.6-67.2-30.9c-17.9-20.2-25.9-47.3-22.4-76.2c7.9-65.8,68.9-110.5,139.6-162.3
			c13.7-10.1,27.9-20.5,42-31.2c45.9-35.2,71.2-62.5,55.4-90.3c-4.8-8.5-14.5-13.6-26.1-13.8c1.9-0.2,3.7-0.2,5.6-0.2
			c18.2,0,32.9,7.8,40.7,15.1c12.4,11.6,19.3,29.6,18.9,49.3c-0.5,23.8-11.6,61.2-61.8,104.8c-24.4,21.2-48.6,39.8-70,56.2
			c-52.3,40.2-93.6,71.9-98.4,111.4c-2.4,19.5,2.7,37.4,14.3,50.5c9.3,10.5,21.7,16.6,35.4,17.6
			C177.4,446.7,175.4,446.8,173.4,446.8z"/>
	</g>
</g>
</svg>
