<svg class="ionicon" xmlns="http://www.w3.org/2000/svg" viewBox="0 0 370.43 470.91">
    <title>Document Add</title>
    <path d="M725.21,512.67a11.4,11.4,0,0,0-.4-3.54,4,4,0,0,0-3.75-2.81c-.56,0-1.12,0-1.68,0H575.64a56.69,56.69,0,0,1-13-1.31,49.77,49.77,0,0,1-27.47-16.77,48.49,48.49,0,0,1-11.79-31.63q-.17-73.08-.05-146.15a16.44,16.44,0,0,0-.11-2.63,3.9,3.9,0,0,0-3.39-3.23,19.43,19.43,0,0,0-2.16,0q-47.74,0-95.51,0a64.17,64.17,0,0,0-11.41,1,66,66,0,0,0-40.14,23.19c-10.7,12.75-15.7,27.62-15.72,44.11q-.13,83.64,0,167.27v41.43A137,137,0,0,1,546.46,775.44l110.8,0A67.56,67.56,0,0,0,671,774.14a66.21,66.21,0,0,0,40-24.81c9.67-12.4,14.15-26.66,14.17-42.27Q725.27,609.86,725.21,512.67Z" transform="translate(-354.79 -304.54)"/>
    <path d="M574.77,472.79c24.17-.22,48.34-.08,72.5-.08q36.78,0,73.54,0c1.33,0,2.89.43,3.56-1.31s-.47-2.74-1.52-3.79l-.19-.18q-80.28-80.3-160.57-160.57a6.51,6.51,0,0,0-2-1.62,2.31,2.31,0,0,0-3.33,1.67,8.93,8.93,0,0,0,0,1.55q0,73.16,0,146.31C556.7,465.58,566.1,472.87,574.77,472.79Z" transform="translate(-354.79 -304.54)"/>
    <path d="M522.9,663H467V607.1a5.1,5.1,0,0,0-5.1-5.1H421.1a5.1,5.1,0,0,0-5.1,5.1V663H360.1a5.1,5.1,0,0,0-5.1,5.1v40.8a5.1,5.1,0,0,0,5.1,5.1H416v55.9a5.1,5.1,0,0,0,5.1,5.1h40.8a5.1,5.1,0,0,0,5.1-5.1V714h55.9a5.1,5.1,0,0,0,5.1-5.1V668.1A5.1,5.1,0,0,0,522.9,663Z" transform="translate(-354.79 -304.54)"/>
</svg>