<svg id="Capa_1" data-name="Capa 1" xmlns="http://www.w3.org/2000/svg" viewBox="0 0 370.45 470.98"><path d="M718.11,506q-73.2.16-146.39.08a37.56,37.56,0,0,1-6.18-.55A50,50,0,0,1,535.36,489a48.51,48.51,0,0,1-12.58-32.75q-.16-73,0-145.91v-1.92a3.84,3.84,0,0,0-1.23-2.75c-1-1.12-2.33-1.19-3.73-1.19q-48.12,0-96.23,0a66.26,66.26,0,0,0-49.86,22.16c-11.77,13.05-17.38,28.62-17.4,46.12q-.11,83.63,0,167.26,0,73.8,0,147.59c0,7.9-.19,15.81.23,23.72a67.1,67.1,0,0,0,3.62,18.93,66.29,66.29,0,0,0,23.68,32.05,65.17,65.17,0,0,0,39.25,13q117.84.09,235.66,0A69,69,0,0,0,670,774.12a65.89,65.89,0,0,0,39.1-23.19c10.57-12.72,15.5-27.55,15.51-43.95q.12-97.2.07-194.38C724.69,508.3,723.21,506,718.11,506ZM477.23,665.69A40.26,40.26,0,0,1,464,680.79a34.33,34.33,0,0,1-19.89,5.8H419.72V725H392.19V605.83h50.87a34.4,34.4,0,0,1,15.61,3.53A42.73,42.73,0,0,1,471,618.59a41.26,41.26,0,0,1,8.15,12.93A39.9,39.9,0,0,1,482,646.29,42,42,0,0,1,477.23,665.69Zm116.09,31.14a52,52,0,0,1-20.74,20.82Q559.25,725,541.27,725H496.78V605.83h44.49q19.65,0,32.91,8a50.72,50.72,0,0,1,19.89,21.49,67.13,67.13,0,0,1,6.64,30Q600.71,683.39,593.32,696.83ZM697.74,630H644.52v25.52h44v22.66h-44V725H617V605.83h80.75Z" transform="translate(-354.24 -304.42)"/><path d="M447.34,631.69a12.18,12.18,0,0,0-6.13-1.68H419.72v32.4h22.5a10.11,10.11,0,0,0,5.79-1.76,12.74,12.74,0,0,0,4.28-5.46,21.39,21.39,0,0,0,1.68-8.9,20.43,20.43,0,0,0-1.84-9.31A12.36,12.36,0,0,0,447.34,631.69Z" transform="translate(-354.24 -304.42)"/><path d="M558.23,634.46q-7.05-4.46-17-4.45H524.32v70.85h16.95q10.08,0,17-4.62A29.5,29.5,0,0,0,569,683.48a47.1,47.1,0,0,0,0-36.6A28.41,28.41,0,0,0,558.23,634.46Z" transform="translate(-354.24 -304.42)"/><path d="M574.3,472.71c24.25-.14,48.49,0,72.74,0h73.25c.6,0,1.21,0,1.81,0,2.19-.13,3.17-2,1.93-3.81a14.24,14.24,0,0,0-1.77-1.88q-64.2-64.2-128.39-128.39l-32.15-32.14a7.32,7.32,0,0,0-2.18-1.8,2.31,2.31,0,0,0-3.27,1.44,7.74,7.74,0,0,0-.09,1.81q0,73.38,0,146.76A18.22,18.22,0,0,0,574.3,472.71Z" transform="translate(-354.24 -304.42)"/></svg>